<svg xmlns="http://www.w3.org/2000/svg" viewBox="0 0 69.949 82.392"><defs><style>.cls-1,.cls-4,.cls-5{fill:#2e3192;}.cls-2{fill:#fff;}.cls-3{fill:#f9ed32;}.cls-4{font-size:15.643px;letter-spacing:0.02em;}.cls-4,.cls-5{font-family:Ministry-Medium, Ministry;}.cls-5{font-size:11.732px;letter-spacing:-0.035em;}.cls-6{letter-spacing:-0.014em;}.cls-7{letter-spacing:-0.043em;}</style></defs><title>logo blue text</title><g id="Layer_2" data-name="Layer 2"><g id="Layer_1-2" data-name="Layer 1"><rect class="cls-1" y="16.504" width="35.604" height="50.578" rx="17.802" ry="17.802"/><path class="cls-2" d="M41.979,26.8a8.941,8.941,0,0,0-7,3.429A8.945,8.945,0,0,0,27.97,26.8a9.289,9.289,0,0,0-9.1,9.47c0,8.221,14.178,16.143,16.1,18.382,1.755-2.25,16.1-8.88,16.1-18.382A9.289,9.289,0,0,0,41.979,26.8Z"/><rect class="cls-1" x="34.346" y="16.504" width="35.604" height="50.578" rx="17.802" ry="17.802" transform="translate(104.295 83.587) rotate(180)"/><path class="cls-3" d="M27.97,26.8a8.945,8.945,0,0,1,7.005,3.429,8.941,8.941,0,0,1,7-3.429,9.289,9.289,0,0,1,9.1,9.47c0,8.221-14.177,16.143-16.1,18.382-1.756-2.25-16.1-8.88-16.1-18.382A9.289,9.289,0,0,1,27.97,26.8Z"/><text class="cls-4" transform="translate(2.132 13.296)">CHARITY</text><text class="cls-5" transform="translate(0.177 79.4) scale(0.988 1)">C<tspan class="cls-6" x="6.734" y="0">ONN</tspan><tspan class="cls-7" x="31.406" y="0">E</tspan><tspan class="cls-6" x="37.507" y="0">CTION</tspan></text></g></g></svg>