<svg xmlns="http://www.w3.org/2000/svg" viewBox="0 0 86.657 51.236"><defs><style>.cls-1{fill:#010101;}.cls-2{fill:#2e3192;}.cls-3{fill:#fff;}.cls-4,.cls-5,.cls-6{fill:#f9ed32;}.cls-5{font-size:5.759px;letter-spacing:0.02em;}.cls-5,.cls-6{font-family:Ministry-Medium, Ministry;}.cls-6{font-size:4.319px;letter-spacing:-0.035em;}.cls-7{letter-spacing:-0.014em;}.cls-8{letter-spacing:-0.043em;}.cls-9{letter-spacing:-0.014em;}</style></defs><title>truck</title><g id="Layer_2" data-name="Layer 2"><g id="Layer_1-2" data-name="Layer 1"><path class="cls-1" d="M0,40.56v.025a1.626,1.626,0,0,0,1.627,1.626H2.883a9.19,9.19,0,0,1,18.146,0H53.516a1.626,1.626,0,0,0,1.627-1.626V1.627A1.626,1.626,0,0,0,53.516,0H1.627A1.626,1.626,0,0,0,0,1.627V40.56Z"/><path class="cls-1" d="M85.519,24.914l-6.6-12.508a4.461,4.461,0,0,0-3.579-2.158H59.559a2.448,2.448,0,0,0-2.441,2.44V39.771a2.448,2.448,0,0,0,2.441,2.44h.93a9.19,9.19,0,0,1,18.146,0h5.582a2.447,2.447,0,0,0,2.44-2.44V29.512A11.714,11.714,0,0,0,85.519,24.914ZM64.968,12.688V24.333H59.559V12.688Zm-.434,17.176H61.172v-1.3h3.362Zm1.735-5.531V12.688h9.068a2.135,2.135,0,0,1,1.421.856l5.7,10.789Z"/><path class="cls-1" d="M69.562,36.108a7.564,7.564,0,1,0,7.564,7.564A7.565,7.565,0,0,0,69.562,36.108Zm4.311,7.564a4.311,4.311,0,1,1-4.311-4.31A4.316,4.316,0,0,1,73.873,43.672Z"/><path class="cls-1" d="M11.956,36.108a7.564,7.564,0,1,0,7.564,7.564A7.564,7.564,0,0,0,11.956,36.108Zm4.31,7.564a4.311,4.311,0,1,1-4.311-4.31A4.315,4.315,0,0,1,16.266,43.672Z"/><rect class="cls-2" x="14.696" y="9.2" width="13.107" height="18.62" rx="6.554" ry="6.554"/><path class="cls-3" d="M30.15,12.991a3.291,3.291,0,0,0-2.578,1.262,3.294,3.294,0,0,0-2.579-1.262,3.419,3.419,0,0,0-3.349,3.486c0,3.027,5.219,5.943,5.928,6.767.646-.828,5.927-3.269,5.927-6.767A3.419,3.419,0,0,0,30.15,12.991Z"/><rect class="cls-2" x="27.34" y="9.2" width="13.107" height="18.62" rx="6.554" ry="6.554" transform="translate(67.787 37.021) rotate(180)"/><path class="cls-4" d="M24.993,12.991a3.294,3.294,0,0,1,2.579,1.262,3.291,3.291,0,0,1,2.578-1.262A3.419,3.419,0,0,1,33.5,16.477c0,3.027-5.219,5.943-5.927,6.767-.647-.828-5.928-3.269-5.928-6.767A3.419,3.419,0,0,1,24.993,12.991Z"/><text class="cls-5" transform="translate(15.482 8.019)">CHARITY</text><text class="cls-6" transform="translate(14.761 32.355) scale(0.988 1)">C<tspan class="cls-7" x="2.479" y="0">ONN</tspan><tspan class="cls-8" x="11.562" y="0">E</tspan><tspan class="cls-9" x="13.808" y="0">CTION</tspan></text></g></g></svg>